# xmcd
#
# Track frame offsets: 
#        187
#        20182
#        31345
#        42572
#        52292
#        69877
#        88552
#        99642
#        111547
#        127345
#        138970
#        149185
#        167330
#
# Disc length: 2486 seconds
#
# Revision: 5
# Processed by: cddbd v1.5.2PL0 Copyright (c) Steve Scherf et al.
# Submitted via: ExactAudioCopy v0.95b4
#
DISCID=ca09b40d
DTITLE=Biohazard - Biohazard (Reissue 1994) (Japanese Edition)
DYEAR=1990
DGENRE=Hardcore
TTITLE0=Retribution
TTITLE1=Victory
TTITLE2=Blue Blood
TTITLE3=Howard Beach
TTITLE4=Wrong Side Of The Tracks 
TTITLE5=Justified Violence
TTITLE6=Skinny Song
TTITLE7=Hold My Own
TTITLE8=Pain
TTITLE9=Panic Attack
TTITLE10=Survival Of The Fittest
TTITLE11=There and Back
TTITLE12=Scarred For Life
EXTD=YEAR: 1994
EXTT0=
EXTT1=
EXTT2=
EXTT3=
EXTT4=
EXTT5=
EXTT6=
EXTT7=
EXTT8=
EXTT9=
EXTT10=
EXTT11=
EXTT12=
PLAYORDER=
